<svg width="128" height="128" viewBox="0 0 128 128" fill="none" xmlns="http://www.w3.org/2000/svg">
<path d="M41.8298 38.4C49.1052 25.7985 52.743 19.4978 57.4922 17.3833C61.6347 15.5389 66.3653 15.5389 70.5078 17.3833C75.257 19.4978 78.8948 25.7985 86.1703 38.4L97.2554 57.6C104.531 70.2015 108.169 76.5022 107.625 81.6725C107.151 86.1822 104.786 90.2789 101.117 92.9443C96.9115 96 89.6361 96 75.0851 96H52.9148C38.3639 96 31.0885 96 26.8826 92.9443C23.2141 90.2789 20.8488 86.1822 20.3748 81.6725C19.8314 76.5022 23.4692 70.2015 30.7446 57.6L41.8298 38.4Z" stroke="#163C44" stroke-width="6" stroke-linecap="round" stroke-linejoin="round"/>
<line x1="64" y1="38" x2="64" y2="62" stroke="#163C44" stroke-width="12" stroke-linecap="round" stroke-linejoin="round"/>
<circle cx="64" cy="80" r="6" fill="#163C44"/>
</svg>
