<svg width="54" height="50" viewBox="0 0 54 50" fill="none" xmlns="http://www.w3.org/2000/svg">
<path d="M15.9149 16.2C19.5526 9.89926 21.3715 6.74889 23.7461 5.69164C25.8174 4.76945 28.1826 4.76945 30.2539 5.69164C32.6285 6.74889 34.4474 9.89926 38.0851 16.2L43.6277 25.8C47.2654 32.1007 49.0843 35.2511 48.8126 37.8362C48.5756 40.0911 47.3929 42.1395 45.5587 43.4721C43.4558 45 39.818 45 32.5426 45H21.4574C14.182 45 10.5442 45 8.44131 43.4721C6.60705 42.1395 5.42441 40.0911 5.18742 37.8362C4.91571 35.2511 6.73458 32.1007 10.3723 25.8L15.9149 16.2Z" stroke="#163C44" stroke-width="6" stroke-linecap="round" stroke-linejoin="round"/>
<line x1="27" y1="16" x2="27" y2="28" stroke="#163C44" stroke-width="6" stroke-linecap="round" stroke-linejoin="round"/>
<circle cx="27" cy="37" r="3" fill="#163C44"/>
</svg>
