<svg width="128" height="129" viewBox="0 0 128 129" fill="none" xmlns="http://www.w3.org/2000/svg">
<path d="M64 107.5L108 92.5V51.5L64 66.5V107.5Z" stroke="#163C44" stroke-width="6" stroke-linejoin="round"/>
<path d="M45 82.5C45 84.1569 43.6569 85.5 42 85.5C40.3431 85.5 39 84.1569 39 82.5H45ZM42 59.3732H39C39 58.0866 39.8204 56.9432 41.0393 56.5312L42 59.3732ZM86.9607 47.342L42.9607 62.2153L41.0393 56.5312L85.0393 41.658L86.9607 47.342ZM45 59.3732V82.5H39V59.3732H45Z" fill="#163C44"/>
<path d="M64 107.5L20 92.5V51.5L64 66.5V107.5Z" stroke="#163C44" stroke-width="6" stroke-linejoin="round"/>
<path d="M64 66.5L108 51.5L64 36.5L20 51.5L64 66.5Z" stroke="#163C44" stroke-width="6" stroke-linejoin="round"/>
<circle cx="101" cy="91.5" r="17" fill="#163C44"/>
<path d="M106.969 83.1705H109.609V99.5605H106.815V88.1205L101.667 95.0505H101.359L96.2107 87.9445V99.5605H93.4387V83.1705H96.0787L101.513 90.5845L106.969 83.1705Z" fill="#F6F6F6"/>
</svg>
