<svg width="128" height="128" viewBox="0 0 128 128" fill="none" xmlns="http://www.w3.org/2000/svg">
<rect x="17" y="32" width="94" height="60" rx="7" stroke="#163C44" stroke-width="6"/>
<path d="M17 42V43.7872C17 46.1891 17 47.3901 17.3932 48.422C17.7405 49.3336 18.3049 50.1468 19.0374 50.7911C19.8666 51.5204 20.9917 51.9405 23.2418 52.7807L56.7239 65.2831C59.4167 66.2886 60.7632 66.7913 62.148 66.9907C63.3763 67.1675 64.6237 67.1675 65.852 66.9907C67.2368 66.7913 68.5833 66.2886 71.2761 65.2831L104.758 52.7807C107.008 51.9405 108.133 51.5204 108.963 50.7911C109.695 50.1468 110.259 49.3336 110.607 48.422C111 47.3901 111 46.1891 111 43.7872V42" stroke="#163C44" stroke-width="6"/>
</svg>
