<svg width="64" height="64" viewBox="0 0 64 64" fill="none" xmlns="http://www.w3.org/2000/svg">
<path d="M20.9149 25.2C24.5526 18.8993 26.3715 15.7489 28.7461 14.6916C30.8174 13.7695 33.1826 13.7695 35.2539 14.6916C37.6285 15.7489 39.4474 18.8993 43.0851 25.2L48.6277 34.8C52.2654 41.1007 54.0843 44.2511 53.8126 46.8362C53.5756 49.0911 52.3929 51.1395 50.5587 52.4721C48.4558 54 44.818 54 37.5426 54H26.4574C19.182 54 15.5442 54 13.4413 52.4721C11.6071 51.1395 10.4244 49.0911 10.1874 46.8362C9.91571 44.2511 11.7346 41.1007 15.3723 34.8L20.9149 25.2Z" stroke="#163C44" stroke-width="6" stroke-linecap="round" stroke-linejoin="round"/>
<line x1="32" y1="25" x2="32" y2="37" stroke="#163C44" stroke-width="6" stroke-linecap="round" stroke-linejoin="round"/>
<circle cx="32" cy="46" r="3" fill="#163C44"/>
</svg>
