<svg xmlns="http://www.w3.org/2000/svg" width="76.097" height="76.106" viewBox="635 650.001 76.097 76.106"><g data-name="Group 49"><g data-name="Group 48"><g data-name="Group 47" transform="translate(635 650)" clip-path="url(&quot;#a&quot;)"><path d="M75.371 18.507 38.635.139a1.309 1.309 0 0 0-1.173 0L.725 18.507A1.311 1.311 0 0 0 0 19.681v36.737c-.004.5.278.959.725 1.183l36.737 18.366c.369.185.804.185 1.173 0l36.736-18.366c.447-.223.729-.681.726-1.181V19.681c0-.497-.281-.952-.726-1.174M38.048 36.583l-10.256-5.129 32.782-17.415 11.284 5.642-33.81 16.902ZM17.3 26.201l32.778-17.41 7.61 3.8L24.91 30.013l-7.61-3.812Zm-1.552 2.158 7.868 3.942v10.453l-3.008-3.008a1.312 1.312 0 0 0-.928-.384h-3.936l.004-11.003Zm22.3-25.584L47.2 7.348 14.414 24.765 4.246 19.681 38.048 2.775ZM2.624 21.801l10.5 5.248v13.624c0 .725.587 1.312 1.312 1.312h4.7L24 46.849a1.311 1.311 0 0 0 2.24-.928V33.612l10.5 5.248v33.8L2.624 55.607V21.801ZM39.36 72.663v-33.8l34.113-17.062v33.8L39.36 72.663Z" fill="#e0992a" fill-rule="evenodd" data-name="Path 110"/></g></g><path d="m700.202 682.856-3.587 2.072-5.006 16.454-5.082-10.63-3.608 2.082.052 18.216 3.18-1.835-.034-11.848 4.304 9.382 2.407-1.39 4.213-14.3.033 11.849 3.18-1.836-.052-18.216Z" fill="#df992a" fill-rule="evenodd" data-name="Path 111"/></g><defs><clipPath id="a"><path d="M0 0h76.097v76.106H0V0z" data-name="Rectangle 45"/></clipPath></defs></svg>