<svg xmlns="http://www.w3.org/2000/svg" width="76.097" height="76.106" viewBox="635 520.001 76.097 76.106"><g data-name="Group 46"><g data-name="Group 43"><g data-name="Group 42" transform="translate(635 520)" clip-path="url(&quot;#a&quot;)"><path d="M75.371 18.507 38.635.139a1.309 1.309 0 0 0-1.173 0L.725 18.507A1.311 1.311 0 0 0 0 19.681v36.737c-.004.5.278.959.725 1.183l36.737 18.366c.369.185.804.185 1.173 0l36.736-18.366c.447-.223.729-.681.726-1.181V19.681c0-.497-.281-.952-.726-1.174M38.048 36.583l-10.256-5.129 32.782-17.415 11.284 5.642-33.81 16.902ZM17.3 26.201l32.778-17.41 7.61 3.8L24.91 30.013l-7.61-3.812Zm-1.552 2.158 7.868 3.942v10.453l-3.008-3.008a1.312 1.312 0 0 0-.928-.384h-3.936l.004-11.003Zm22.3-25.584L47.2 7.348 14.414 24.765 4.246 19.681 38.048 2.775ZM2.624 21.801l10.5 5.248v13.624c0 .725.587 1.312 1.312 1.312h4.7L24 46.849a1.311 1.311 0 0 0 2.24-.928V33.612l10.5 5.248v33.8L2.624 55.607V21.801ZM39.36 72.663v-33.8l34.113-17.062v33.8L39.36 72.663Z" fill="#e0992a" fill-rule="evenodd" data-name="Path 107"/></g></g><g data-name="Group 45"><g data-name="Group 44" transform="translate(635 520)" clip-path="url(&quot;#b&quot;)"><path d="M56.431 37.641c-3.269 1.887-5.581 5.206-5.572 8.493-.006 6.618 8.166-.481 8.177 3.458.003 1.306-.881 2.736-2.382 3.602-1.475.851-2.32.369-2.414-1.039l-3.403 1.965c.055 3.422 2.601 3.936 5.896 2.034 3.607-2.083 5.598-5.819 5.59-8.695-.018-6.419-8.14.313-8.15-3.341-.004-1.439.863-2.647 2.051-3.332.042-.025.084-.048.126-.071 1.36-.756 2.206-.303 2.273.863l3.499-2.02c-.214-3.176-2.448-3.79-5.691-1.917" fill="#df992a" fill-rule="evenodd" data-name="Path 108"/></g></g></g><defs><clipPath id="a"><path d="M0 0h76.097v76.106H0V0z" data-name="Rectangle 41"/></clipPath><clipPath id="b"><path d="m50.8 40.892.053 18.656 11.486-6.632-.054-18.657L50.8 40.892Z" data-name="Path 109"/></clipPath></defs></svg>