<svg width="128" height="136" viewBox="0 0 128 136" fill="none" xmlns="http://www.w3.org/2000/svg">
<mask id="path-1-outside-1_2043_4286" maskUnits="userSpaceOnUse" x="32" y="2" width="59" height="59" fill="black">
<rect fill="white" x="32" y="2" width="59" height="59"/>
<path fill-rule="evenodd" clip-rule="evenodd" d="M79.9926 27.0283C79.9975 26.8528 80 26.6767 80 26.5C80 16.2827 71.7173 8 61.5 8C51.2827 8 43 16.2827 43 26.5C43 26.6767 43.0025 26.8528 43.0074 27.0283C42.8408 27.0096 42.6715 27 42.5 27C40.0147 27 38 29.0147 38 31.5C38 33.9853 40.0147 36 42.5 36C42.6715 36 42.8408 35.9904 43.0074 35.9717C43.0025 36.1472 43 36.3233 43 36.5C43 46.7173 51.2827 55 61.5 55C71.7173 55 80 46.7173 80 36.5C80 36.3233 79.9975 36.1472 79.9926 35.9717C80.1592 35.9904 80.3285 36 80.5 36C82.9853 36 85 33.9853 85 31.5C85 29.0147 82.9853 27 80.5 27C80.3285 27 80.1592 27.0096 79.9926 27.0283Z"/>
</mask>
<path d="M79.9926 27.0283L73.995 26.8601L73.8015 33.7607L80.6617 32.9909L79.9926 27.0283ZM43.0074 27.0283L42.3383 32.9909L49.1985 33.7607L49.005 26.8601L43.0074 27.0283ZM43.0074 35.9717L49.005 36.1399L49.1985 29.2393L42.3383 30.0091L43.0074 35.9717ZM79.9926 35.9717L80.6617 30.0091L73.8015 29.2393L73.995 36.1399L79.9926 35.9717ZM74 26.5C74 26.6206 73.9983 26.7407 73.995 26.8601L85.9902 27.1965C85.9967 26.9649 86 26.7327 86 26.5H74ZM61.5 14C68.4036 14 74 19.5964 74 26.5H86C86 12.969 75.031 2 61.5 2V14ZM49 26.5C49 19.5964 54.5964 14 61.5 14V2C47.969 2 37 12.969 37 26.5H49ZM49.005 26.8601C49.0017 26.7407 49 26.6206 49 26.5H37C37 26.7328 37.0033 26.9649 37.0098 27.1965L49.005 26.8601ZM42.5 33C42.4474 33 42.3934 32.997 42.3383 32.9909L43.6765 21.0657C43.2883 21.0222 42.8957 21 42.5 21V33ZM44 31.5C44 32.3284 43.3284 33 42.5 33V21C36.701 21 32 25.701 32 31.5H44ZM42.5 30C43.3284 30 44 30.6716 44 31.5H32C32 37.299 36.701 42 42.5 42V30ZM42.3383 30.0091C42.3934 30.003 42.4474 30 42.5 30V42C42.8957 42 43.2883 41.9778 43.6765 41.9343L42.3383 30.0091ZM49 36.5C49 36.3794 49.0017 36.2593 49.005 36.1399L37.0098 35.8035C37.0033 36.0351 37 36.2672 37 36.5H49ZM61.5 49C54.5964 49 49 43.4036 49 36.5H37C37 50.031 47.969 61 61.5 61V49ZM74 36.5C74 43.4036 68.4036 49 61.5 49V61C75.031 61 86 50.031 86 36.5H74ZM73.995 36.1399C73.9983 36.2593 74 36.3794 74 36.5H86C86 36.2673 85.9967 36.0351 85.9902 35.8035L73.995 36.1399ZM80.5 30C80.5526 30 80.6067 30.003 80.6617 30.0091L79.3235 41.9343C79.7117 41.9778 80.1043 42 80.5 42V30ZM79 31.5C79 30.6716 79.6716 30 80.5 30V42C86.299 42 91 37.299 91 31.5H79ZM80.5 33C79.6716 33 79 32.3284 79 31.5H91C91 25.701 86.299 21 80.5 21V33ZM80.6617 32.9909C80.6067 32.997 80.5526 33 80.5 33V21C80.1043 21 79.7117 21.0222 79.3235 21.0657L80.6617 32.9909Z" fill="#163C44" mask="url(#path-1-outside-1_2043_4286)"/>
<path d="M43 24C71.5 24 80.9 18 94.5 18" stroke="#163C44" stroke-width="6" stroke-linecap="round" stroke-linejoin="round"/>
<path d="M103 87V87C103 77.6112 95.3888 70 86 70H47.2C37.6791 70 32.9187 70 29.2822 71.8529C26.0834 73.4827 23.4827 76.0834 21.8529 79.2822C20 82.9187 20 87.6791 20 97.2V126" stroke="#163C44" stroke-width="6" stroke-linecap="round"/>
<path d="M36 101V126" stroke="#163C44" stroke-width="6" stroke-linecap="round" stroke-linejoin="round"/>
<path d="M82 104V117" stroke="#163C44" stroke-width="6" stroke-linecap="round" stroke-linejoin="round"/>
<rect x="67" y="87" width="54" height="46" rx="5" stroke="#163C44" stroke-width="6"/>
<path d="M94 87L94 105" stroke="#163C44" stroke-width="6" stroke-linecap="round"/>
</svg>
