<svg width="157" height="128" viewBox="0 0 157 128" fill="none" xmlns="http://www.w3.org/2000/svg">
<path d="M91 51V23L47 38V94L58 90.25" stroke="#163C44" stroke-width="6" stroke-linejoin="round"/>
<path d="M28 60C28 61.6569 26.6569 63 25 63C23.3431 63 22 61.6569 22 60H28ZM25 30.8732H22C22 29.5866 22.8204 28.4432 24.0393 28.0312L25 30.8732ZM69.9607 18.842L25.9607 33.7153L24.0393 28.0312L68.0393 13.158L69.9607 18.842ZM28 30.8732V60H22V30.8732H28Z" fill="#163C44"/>
<path d="M47 94L3 79V23L47 38V94Z" stroke="#163C44" stroke-width="6" stroke-linejoin="round"/>
<path d="M47 38L91 23L47 8L3 23L47 38Z" stroke="#163C44" stroke-width="6" stroke-linejoin="round"/>
<rect x="60" y="52" width="94" height="60" rx="7" stroke="#163C44" stroke-width="6"/>
<path d="M60 62V63.7872C60 66.1891 60 67.3901 60.3932 68.422C60.7405 69.3336 61.3049 70.1468 62.0374 70.7911C62.8666 71.5204 63.9917 71.9405 66.2418 72.7807L99.7239 85.2831C102.417 86.2886 103.763 86.7913 105.148 86.9907C106.376 87.1675 107.624 87.1675 108.852 86.9907C110.237 86.7913 111.583 86.2886 114.276 85.2831L147.758 72.7807C150.008 71.9405 151.133 71.5204 151.963 70.7911C152.695 70.1468 153.259 69.3336 153.607 68.422C154 67.3901 154 66.1891 154 63.7872V62" stroke="#163C44" stroke-width="6"/>
</svg>
