<svg width="128" height="129" viewBox="0 0 128 129" fill="none" xmlns="http://www.w3.org/2000/svg">
<path d="M64 92.5L108 77.5V51.5L64 66.5V92.5Z" stroke="#163C44" stroke-width="6" stroke-linejoin="round"/>
<path d="M45 70.5C45 72.1569 43.6569 73.5 42 73.5C40.3431 73.5 39 72.1569 39 70.5H45ZM42 59.3732H39C39 58.0866 39.8204 56.9432 41.0393 56.5312L42 59.3732ZM86.9607 47.342L42.9607 62.2153L41.0393 56.5312L85.0393 41.658L86.9607 47.342ZM45 59.3732V70.5H39V59.3732H45Z" fill="#163C44"/>
<path d="M64 92.5L20 77.5V51.5L64 66.5V92.5Z" stroke="#163C44" stroke-width="6" stroke-linejoin="round"/>
<path d="M64 66.5L108 51.5L64 36.5L20 51.5L64 66.5Z" stroke="#163C44" stroke-width="6" stroke-linejoin="round"/>
<circle cx="101" cy="76.5" r="17" fill="#163C44"/>
<path d="M101.401 84.8245C98.1666 84.8245 95.5266 82.9325 94.6906 80.2925L97.0666 79.2145C97.8366 81.2605 99.5306 82.3825 101.401 82.3825C103.249 82.3825 104.437 81.4805 104.437 80.2705C104.437 79.1485 103.755 78.5545 102.457 78.1585L99.2446 77.1685C96.5386 76.3545 95.2186 74.7265 95.2186 72.6145C95.2186 69.8205 97.5066 67.9065 100.851 67.9065C103.953 67.9065 106.307 69.6665 107.143 71.9765L104.745 73.0765C104.151 71.3385 102.743 70.3485 100.873 70.3485C99.1566 70.3485 98.0126 71.2285 98.0126 72.4825C98.0126 73.4945 98.7166 74.2425 100.037 74.6385L103.139 75.5845C105.845 76.4205 107.231 77.8725 107.231 80.0725C107.231 82.9105 104.877 84.8245 101.401 84.8245Z" fill="#F6F6F6"/>
</svg>
