<svg width="62" height="62" viewBox="0 0 62 62" fill="none" xmlns="http://www.w3.org/2000/svg">
<circle cx="31" cy="31" r="28" stroke="#163C44" stroke-width="6"/>
<path d="M44 31C44 39.1957 42.3326 46.4671 39.7769 51.5787C37.1314 56.8697 34.0317 59 31.5 59C28.9683 59 25.8686 56.8697 23.2231 51.5787C20.6674 46.4671 19 39.1957 19 31C19 22.8043 20.6674 15.5329 23.2231 10.4213C25.8686 5.13035 28.9683 3 31.5 3C34.0317 3 37.1314 5.13035 39.7769 10.4213C42.3326 15.5329 44 22.8043 44 31Z" stroke="#163C44" stroke-width="6"/>
<path d="M56 18C56 20.2091 44.8071 22 31 22C17.1929 22 6 20.2091 6 18" stroke="#163C44" stroke-width="6"/>
<path d="M4 37C7.99999 41 17.1406 44 31.5 44C45.8594 44 54 41 58 37" stroke="#163C44" stroke-width="6"/>
</svg>
