<svg width="128" height="129" viewBox="0 0 128 129" fill="none" xmlns="http://www.w3.org/2000/svg">
<path d="M64 117.5L108 102.5V36.5L64 51.5V117.5Z" stroke="#163C44" stroke-width="6" stroke-linejoin="round"/>
<path d="M45 73.5C45 75.1569 43.6569 76.5 42 76.5C40.3431 76.5 39 75.1569 39 73.5H45ZM42 44.3732H39C39 43.0866 39.8204 41.9432 41.0393 41.5312L42 44.3732ZM86.9607 32.342L42.9607 47.2153L41.0393 41.5312L85.0393 26.658L86.9607 32.342ZM45 44.3732V73.5H39V44.3732H45Z" fill="#163C44"/>
<path d="M64 117.5L20 102.5V36.5L64 51.5V117.5Z" stroke="#163C44" stroke-width="6" stroke-linejoin="round"/>
<path d="M64 51.5L108 36.5L64 21.5L20 36.5L64 51.5Z" stroke="#163C44" stroke-width="6" stroke-linejoin="round"/>
<circle cx="101" cy="101.5" r="17" fill="#163C44"/>
<path d="M87 84.5H101V118.5H87V84.5Z" fill="#163C44"/>
<circle cx="87" cy="101.5" r="17" fill="#163C44"/>
<path d="M95.288 109.5H92.186L88.534 103.692L84.86 109.5H81.758L86.972 101.228L81.824 93.11H84.948L88.534 98.764L92.098 93.11H95.222L90.074 101.228L95.288 109.5ZM97.2929 109.5V93.11H100.065V107.058H107.413V109.5H97.2929Z" fill="#F6F6F6"/>
</svg>
