<svg width="128" height="129" viewBox="0 0 128 129" fill="none" xmlns="http://www.w3.org/2000/svg">
<path d="M64 84.5L96 73.8902V55.5L64 66.1098V84.5Z" stroke="#163C44" stroke-width="6" stroke-linejoin="round"/>
<path d="M51 68.5C51 70.1569 49.6569 71.5 48 71.5C46.3431 71.5 45 70.1569 45 68.5H51ZM48 60.3689H45C45 59.0839 45.8184 57.9416 47.0352 57.5283L48 60.3689ZM80.9648 52.3406L48.9648 63.2095L47.0352 57.5283L79.0352 46.6594L80.9648 52.3406ZM51 60.3689V68.5H45V60.3689H51Z" fill="#163C44"/>
<path d="M64 84.5L32 73.8902V55.5L64 66.1098V84.5Z" stroke="#163C44" stroke-width="6" stroke-linejoin="round"/>
<path d="M64 65.5L96 55L64 44.5L32 55L64 65.5Z" stroke="#163C44" stroke-width="6" stroke-linejoin="round"/>
<circle cx="102" cy="76.5" r="17" fill="#163C44"/>
<path d="M88 59.5H102V93.5H88V59.5Z" fill="#163C44"/>
<circle cx="88" cy="76.5" r="17" fill="#163C44"/>
<path d="M94.4188 84.5H91.3168L87.6648 78.692L83.9908 84.5H80.8888L86.1028 76.228L80.9548 68.11H84.0788L87.6648 73.764L91.2288 68.11H94.3528L89.2048 76.228L94.4188 84.5ZM102.364 84.764C99.1297 84.764 96.4897 82.872 95.6537 80.232L98.0297 79.154C98.7997 81.2 100.494 82.322 102.364 82.322C104.212 82.322 105.4 81.42 105.4 80.21C105.4 79.088 104.718 78.494 103.42 78.098L100.208 77.108C97.5017 76.294 96.1817 74.666 96.1817 72.554C96.1817 69.76 98.4697 67.846 101.814 67.846C104.916 67.846 107.27 69.606 108.106 71.916L105.708 73.016C105.114 71.278 103.706 70.288 101.836 70.288C100.12 70.288 98.9757 71.168 98.9757 72.422C98.9757 73.434 99.6797 74.182 101 74.578L104.102 75.524C106.808 76.36 108.194 77.812 108.194 80.012C108.194 82.85 105.84 84.764 102.364 84.764Z" fill="#F6F6F6"/>
</svg>
