<svg width="128" height="129" viewBox="0 0 128 129" fill="none" xmlns="http://www.w3.org/2000/svg">
<path d="M64 117.5L108 102.5V26.5L64 41.5V117.5Z" stroke="#163C44" stroke-width="6" stroke-linejoin="round"/>
<path d="M45 63.5C45 65.1569 43.6569 66.5 42 66.5C40.3431 66.5 39 65.1569 39 63.5H45ZM42 34.3732H39C39 33.0866 39.8204 31.9432 41.0393 31.5312L42 34.3732ZM86.9607 22.342L42.9607 37.2153L41.0393 31.5312L85.0393 16.658L86.9607 22.342ZM45 34.3732V63.5H39V34.3732H45Z" fill="#163C44"/>
<path d="M64 117.5L20 102.5V26.5L64 41.5V117.5Z" stroke="#163C44" stroke-width="6" stroke-linejoin="round"/>
<path d="M64 41.5L108 26.5L64 11.5L20 26.5L64 41.5Z" stroke="#163C44" stroke-width="6" stroke-linejoin="round"/>
<circle cx="101" cy="101.5" r="17" fill="#163C44"/>
<path d="M73 84.5H101V118.5H73V84.5Z" fill="#163C44"/>
<circle cx="73" cy="101.5" r="17" fill="#163C44"/>
<path d="M80.743 109.5H77.641L73.989 103.692L70.315 109.5H67.213L72.427 101.228L67.279 93.11H70.403L73.989 98.764L77.553 93.11H80.677L75.529 101.228L80.743 109.5ZM95.288 109.5H92.186L88.534 103.692L84.86 109.5H81.758L86.972 101.228L81.824 93.11H84.948L88.534 98.764L92.098 93.11H95.222L90.074 101.228L95.288 109.5ZM97.2929 109.5V93.11H100.065V107.058H107.413V109.5H97.2929Z" fill="#F6F6F6"/>
</svg>
